Music_TitleScreen:
	musicheader 4, 1, title2_3_Ch1
	musicheader 1, 2, title2_3_Ch2
	musicheader 1, 3, title2_3_Ch3
	musicheader 1, 4, title2_3_Ch4
;	include	group.def
;bank3d	group	G_MUSIC4
;
;;	title2_3
;
;;	Converting on Fri Jul 30 19:00:35 1999
;
;;				by ver 1.01
;
;	public	mustitle3
;mustitle3:








;----------------------------------------
title2_3_Ch1:
;----------------------------------------
	tempo 144
	volume 7, 7
	pitch_offset 1
	duty_cycle 3
	stereo_panning TRUE, FALSE
	soundinput 0
; P1-1
	note_type 12, 8, 0
; P1-2
	octave 2
	note G_,16
; P1-3
	note G#,16
; P1-4
	octave 3
	note C_,16
; P1-5
	note C_,16
; P1-6
	tempo 136
	note_type 12, 11, 3
	note D_,4
	octave 2
	note G_,2
	octave 3
	note D_,4
	octave 2
	note G_,2
	octave 3
	note D_,2
	octave 2
	note G_,2
; P1-7
	octave 3
	note C_,4
	octave 2
	note F_,2
	octave 3
	note C_,4
	octave 2
	note F_,2
	octave 3
	note C_,2
	octave 2
	note F_,2
; P1-8
	note B_,4
	note G_,2
	note B_,4
	note G_,2
	note B_,2
	note G_,2
; P1-9
	note A_,4
	note D_,2
	note A_,4
	note D_,2
	note A_,2
	octave 3
	note C_,2
; P1-10
	note D_,6
	octave 2
	note B_,2
	octave 3
	note D_,4
	octave 2
	note B_,4
; P1-11
	octave 3
	note C_,6
	note F_,6
	note C_,4
; P1-12
	note D_,6
	note D#,1
	note E_,1
	note F_,6
	note E_,1
	note D#,1
; P1-13
	note D_,8
	note_type 8, 11, 3
	note C_,4
	octave 2
	note B_,4
	octave 3
	note C_,4
; P1-14
	note D_,9
	octave 2
	note B_,3
	octave 3
	note D_,6
	octave 2
	note B_,6
; P1-15
	octave 3
	note C_,3
	note D_,6
	note E_,3
	note E_,4
	note E_,4
	note C_,4
; P1-16
	octave 2
	note B_,12
	octave 3
	note F_,4
	note E_,4
	note C_,4
; P1-17
	note D_,12
	rest 3
	octave 2
	note B_,3
	octave 3
	note C_,3
	note D_,3
; P1-18
	note D_,9
	octave 2
	note B_,3
	octave 3
	note D_,6
	octave 2
	note B_,6
; P1-19
	octave 3
	note C_,9
	note F_,9
	note C_,6
; P1-20
	note D_,9
	note_type 12, 11, 3
	note D#,1
	note E_,1
	note F_,6
	note E_,1
	note D#,1
; P1-21
	note D_,8
	note_type 8, 11, 3
	note C_,4
	octave 2
	note B_,4
	octave 3
	note C_,4
; P1-22
	note D_,9
	octave 2
	note B_,3
	octave 3
	note D_,9
	note G_,3
; P1-23
	note A_,4
	note G_,4
	note F_,4
	note F_,6
	note E_,6
; P1-24
	note D_,9
	note F_,3
	note G_,3
	note D_,6
	note G_,3
; P1-25
	note G_,9
	note A_,6
	note F_,3
	note A_,3
	octave 4
	note C_,3
; P1-26
	note_type 12, 11, 3
	octave 3
	note D_,12
	note E_,4
; P1-27
	note F_,8
	note G_,4
	note F_,4
; P1-28
	note E_,8
	note_type 8, 11, 3
	note G_,4
	note F_,4
	note E_,4
; P1-29
	note G_,12
	octave 4
	note C_,6
	note C#,6
; P1-30
	note_type 12, 11, 3
	note D_,1
	rest 1
	stereo_panning TRUE, TRUE
	octave 2
	note D_,1
	octave 1
	note A_,1
	octave 2
	note D_,1
	rest 1
	note D_,1
	octave 1
	note A_,1
	octave 2
	note D_,1
	rest 1
	note D_,1
	octave 1
	note A_,1
	octave 2
	note D_,1
	rest 1
	note D_,1
	octave 1
	note A_,1
; P1-31
	octave 2
	note D_,1
	rest 1
	note D_,1
	octave 1
	note A_,1
	octave 2
	note D_,1
	rest 1
	note D_,1
	octave 1
	note A_,1
	note_type 8, 11, 3
	stereo_panning TRUE, FALSE
	octave 4
	note C_,4
	note C_,4
	note C#,4
; P1-32
	stereo_panning TRUE, TRUE
	note_type 12, 11, 3
	note D_,1
	rest 1
	octave 2
	note D_,1
	octave 1
	note A_,1
	octave 2
	note D_,1
	rest 1
	note D_,1
	octave 1
	note A_,1
	octave 2
	note D_,1
	rest 1
	note D_,1
	octave 1
	note A_,1
	octave 2
	note D_,1
	rest 1
	note D_,1
	octave 1
	note A_,1
; P1-33
	octave 2
	note D_,1
	rest 1
	note D_,1
	octave 1
	note A_,1
	octave 2
	note D_,1
	rest 1
	note D_,1
	octave 1
	note A_,1
	note_type 8, 11, 3
	stereo_panning TRUE, FALSE
	octave 3
	note E_,4
	note E_,4
	note C_,4
; P1-34
	note_type 12, 11, 7
	note D_,16
; P1-35
	note C_,16
; P1-36
	octave 2
	note B_,16
; P1-37
	octave 3
	note C_,8
	octave 2
	note B_,8
; P1-38
	octave 3
	note D_,8
	octave 2
	note B_,8
; P1-39
	octave 3
	note C_,8
	note F_,8
; P1-40
	note A_,8
	note G_,6
	note G_,1
	note F#,1
; P1-41
	note F_,8
	note E_,8
; P1-42
	note D_,16
; P1-43
	note D_,16
; P1-44
	octave 2
	note G_,1
	rest 3
	note G_,1
	rest 5
	note G_,1
	note G_,1
	note G_,1
	rest 3
; P1-45
	note G_,1
	rest 3
	note G_,1
	rest 3
	note_type 8, 11, 3
	note A_,2
	note A_,2
	note A_,2
	note A_,2
	note A_,2
	note F#,2
; P1-46
	note_type 12, 11, 2
	note G_,16
	sound_ret
;----------------------------------------
title2_3_Ch2:
;----------------------------------------
	duty_cycle 3
	vibrato 16, 1, 4
; P2-1
	note_type 12, 10, 0
; P2-2
	octave 3
	stereo_panning TRUE, TRUE
	note D_,16
; P2-3
	volume_envelope 11, 0
	note C_,8
	note G#,6
	note G_,1
	note F#,1
; P2-4
	note F_,16
; P2-5
	note G#,16
	note_type 12, 12, 7
; P2-6
	rest 16
; P2-7
	rest 16
; P2-8
	rest 16
; P2-9
	note E_,4
	note D_,2
	note C_,4
	note D_,2
	note E_,4
; P2-10
	stereo_panning TRUE, TRUE ;;;
	note G_,6
	note B_,2
	octave 4
	note D_,8
; P2-11
	stereo_panning FALSE, TRUE ;;;
	octave 2
	note A_,4
	note F_,4
	stereo_panning TRUE, TRUE ;;;
	octave 4
	note F_,6
	note E_,1
	note D#,1
; P2-12
	note D_,8
	stereo_panning FALSE, TRUE ;;;
	octave 2
	note A_,8
; P2-13
	stereo_panning TRUE, TRUE ;;;
	octave 4
	note D_,4
	note D_,2
	note C_,4
	note C_,2
	octave 3
	note B_,4
; P2-14
	note G_,6
	note B_,2
	octave 4
	note D_,8
; P2-15
	stereo_panning FALSE, TRUE ;;;
	octave 2
	note A_,6
	note F_,2
	stereo_panning TRUE, TRUE ;;;
	note_type 8, 12, 7
	octave 4
	note C_,4
	octave 3
	note B_,4
	octave 4
	note C_,4
; P2-16
	note D_,12
	stereo_panning FALSE, TRUE ;;;
	octave 2
	note A_,9
	note_type 12, 12, 7
	note G_,1
	note A_,1
; P2-17
	note B_,6
	note E_,1
	note F#,1
	note G_,4
	note A_,4
; P2-18
	stereo_panning TRUE, TRUE ;;;
	octave 3
	note G_,6
	note B_,2
	octave 4
	note D_,8
; P2-19
	stereo_panning FALSE, TRUE ;;;
	octave 2
	note A_,2
	note F_,6
	stereo_panning TRUE, TRUE ;;;
	octave 4
	note F_,6
	note E_,1
	note D#,1
; P2-20
	note D_,8
	stereo_panning FALSE, TRUE ;;;
	octave 3
	note C_,2
	octave 2
	note A_,6
; P2-21
	note B_,6
	note G_,2
	note_type 8, 12, 7
	note F_,4
	note G_,4
	note F_,4
; P2-22
	stereo_panning TRUE, TRUE ;;;
	octave 3
	note G_,9
	note B_,3
	octave 4
	note D_,12
; P2-23
	octave 3
	note D_,4
	note C_,4
	note D_,4
	octave 4
	note F_,4
	note E_,4
	note F_,4
; P2-24
	note G_,9
	note A#,3
	note G_,12
; P2-25
	note G_,12
	note A_,12
; P2-26
	note A#,9
	note F_,3
	note F_,12
; P2-27
	stereo_panning FALSE, TRUE ;;;
	octave 3
	note D_,12
	stereo_panning TRUE, TRUE ;;;
	octave 4
	note A#,6
	note B_,6
; P2-28
	octave 5
	note C_,9
	octave 4
	note G_,3
	note G_,12
; P2-29
	stereo_panning FALSE, TRUE ;;;
	octave 3
	note E_,12
	stereo_panning TRUE, TRUE ;;;
	octave 5
	note C_,6
	note C#,6
; P2-30
	note_type 12, 12, 7
	stereo_panning TRUE, FALSE ;;;
	note D_,1
	octave 3
	note A_,1
	stereo_panning FALSE, TRUE ;;;
	octave 4
	note D_,1
	note A_,1
	stereo_panning TRUE, FALSE ;;;
	note D_,1
	octave 3
	note A_,1
	stereo_panning FALSE, TRUE ;;;
	octave 4
	note D_,1
	note A_,1
	stereo_panning TRUE, FALSE ;;;
	note D_,1
	octave 3
	note A_,1
	stereo_panning FALSE, TRUE ;;;
	octave 4
	note D_,1
	note A_,1
	stereo_panning TRUE, FALSE ;;;
	note D_,1
	octave 3
	note A_,1
	stereo_panning FALSE, TRUE ;;;
	octave 4
	note D_,1
	note A_,1
; P2-31
	stereo_panning TRUE, FALSE ;;;
	note D_,1
	octave 3
	note A_,1
	stereo_panning FALSE, TRUE ;;;
	octave 4
	note D_,1
	note A_,1
	stereo_panning TRUE, FALSE ;;;
	note D_,1
	octave 3
	note A_,1
	stereo_panning FALSE, TRUE ;;;
	octave 4
	note D_,1
	note A_,1
	stereo_panning TRUE, TRUE ;;;
	note_type 8, 12, 7
	octave 5
	note C_,4
	note C_,4
	note C#,4
; P2-32
	note_type 12, 12, 7
	stereo_panning TRUE, FALSE ;;;
	note D_,1
	octave 3
	note A_,1
	stereo_panning FALSE, TRUE ;;;
	octave 4
	note D_,1
	note A_,1
	stereo_panning TRUE, FALSE ;;;
	note D_,1
	octave 3
	note A_,1
	stereo_panning FALSE, TRUE ;;;
	octave 4
	note D_,1
	note A_,1
	stereo_panning TRUE, FALSE ;;;
	note D_,1
	octave 3
	note A_,1
	stereo_panning FALSE, TRUE ;;;
	octave 4
	note D_,1
	note A_,1
	stereo_panning TRUE, FALSE ;;;
	note D_,1
	octave 3
	note A_,1
	stereo_panning FALSE, TRUE ;;;
	octave 4
	note D_,1
	note A_,1
; P2-31
	stereo_panning TRUE, FALSE ;;;
	note D_,1
	octave 3
	note A_,1
	stereo_panning FALSE, TRUE ;;;
	octave 4
	note D_,1
	note A_,1
	stereo_panning TRUE, FALSE ;;;
	note D_,1
	octave 3
	note A_,1
	stereo_panning FALSE, TRUE ;;;
	octave 4
	note D_,1
	note A_,1
	stereo_panning TRUE, TRUE ;;;
	note_type 8, 12, 7
	octave 5
	note C_,4
	note C_,4
	octave 4
	note A_,4
; P2-34
	note_type 12, 12, 7
	octave 3
	note B_,16
; P2-35
	note A_,8
	note F_,6
	note E_,1
	note D#,1
; P2-36
	note D_,8
	note G_,8
; P2-37
	note F_,8
	note A_,8
; P2-38
	note G_,16
; P2-39
	note F_,8
	octave 4
	note F_,6
	note E_,1
	note D#,1
; P2-40
	note D_,8
	octave 2
	note B_,8
; P2-41
	octave 3
	note C_,8
	note A_,6
	note F_,1
	note A_,1
; P2-42
	note G_,16
; P2-43
	note G_,16
; P2-44
	octave 4
	note G_,1
	rest 3
	note G_,1
	rest 5
	note G_,1
	note G_,1
	note G_,1
	rest 3
; P2-45
	note G_,1
	rest 3
	note G_,4
	note_type 8, 11, 3
	octave 3
	note F_,2
	note F_,2
	note F_,2
	note F_,2
	note F_,2
	note F#,2
; P2-46
	note_type 12, 12, 2
	note G_,16
	sound_ret 
;----------------------------------------
title2_3_Ch3:
;----------------------------------------
	note_type 12, 2, 7
	stereo_panning FALSE, TRUE
; P3-2
	octave 3
	note D_,16
; P3-3
	note D#,16
; P3-4
	note F_,16
; P3-5
	stereo_panning TRUE, TRUE
	note_type 12, 1, 7
;					g#
	octave 2
	note G#,4
	note D#,2
	note G#,4
	note D#,2
	note G#,2
	note D#,2
; P3-6
	octave 2
	note G_,4
	note D_,2
	note G_,4
	note D_,2
	note G_,2
	note D_,2
; P3-7
	note A_,4
	note F_,2
	note A_,4
	note F_,2
	note A_,2
	note F_,2
; P3-8
	note G_,4
	note D_,2
	note G_,4
	note D_,2
	note G_,2
	note D_,2
; P3-9
	note F_,4
	note A_,2
	note F_,4
	note A_,2
	octave 3
	note C_,2
	octave 2
	note A_,2
; P3-10
	note G_,4
	note D_,2
	note G_,4
	note D_,2
	note G_,2
	note D_,2
; P3-11
	note A_,4
	note F_,2
	note A_,4
	note F_,2
	note A_,2
	octave 3
	note C_,2
; P3-12
	octave 2
	note B_,4
	note G_,2
	note B_,4
	note G_,2
	note B_,2
	note G_,2
; P3-13
	note G_,4
	note B_,2
	note A_,4
	note B_,2
	octave 3
	note C_,2
	note C_,2
; P3-14
	octave 2
	note G_,4
	note D_,2
	note G_,4
	note D_,2
	note G_,2
	note D_,2
; P3-15
	note A_,4
	note F_,2
	note A_,4
	note F_,2
	note A_,2
	octave 3
	note C_,2
; P3-16
	octave 2
	note B_,4
	note G_,2
	note B_,4
	note G_,2
	note B_,2
	octave 3
	note C_,2
; P3-17
	octave 2
	note B_,4
	note G_,2
	note B_,4
	note G_,2
	octave 3
	note D_,4
; P3-18
	octave 2
	note G_,4
	note D_,2
	note G_,4
	note D_,2
	note G_,2
	note D_,2
; P3-19
	note A_,4
	note F_,2
	note A_,4
	note F_,2
	note A_,2
	octave 3
	note C_,2
; P3-20
	octave 2
	note B_,4
	note G_,2
	note B_,4
	note G_,2
	note B_,2
	note G_,2
; P3-21
	octave 3
	note D_,4
	octave 2
	note G_,2
	octave 3
	note D_,4
	octave 2
	note G_,2
	octave 3
	note D_,2
	octave 2
	note A_,2
; P3-22
	note G_,4
	note D_,2
	note G_,4
	note D_,2
	note G_,2
	note D_,2
; P3-23
	note A_,4
	note F_,2
	note A_,4
	note F_,2
	note A_,2
	octave 3
	note C_,2
; P3-24
	octave 2
	note B_,4
	note G_,2
	note B_,4
	note G_,2
	octave 3
	note D_,2
	octave 2
	note G_,2
; P3-25
	note G_,2
	note D_,2
	note G_,2
	note A_,4
	note F_,2
	note A_,2
	octave 3
	note C_,2
; P3-26
	octave 2
	note A#,4
	note F_,2
	note A#,4
	note F_,2
	note A#,2
	note F_,2
; P3-27
	note A#,4
	note F_,2
	note A#,4
	note F_,2
	note B_,2
	note G_,2
; P3-28
	octave 3
	note C_,4
	octave 2
	note G_,2
	octave 3
	note C_,4
	octave 2
	note G_,2
	octave 3
	note C_,2
	octave 2
	note G_,2
; P3-29
	octave 3
	note C_,4
	octave 2
	note G_,2
	octave 3
	note C_,4
	octave 2
	note G_,2
	octave 3
	note C#,2
	octave 2
	note A_,2
; P3-30
	octave 3
	note D_,1
	rest 1
	note A_,2
	rest 2
	octave 4
	note D_,4
	octave 3
	note A_,2
	rest 2
	octave 5
	note D_,2
; P3-31 -tie
	note D_,2
	octave 4
	note D_,4
	octave 3
	note A_,2
	note_type 8, 1, 7
	note C_,4
	note C_,4
	note C#,4
; P3-32
	note_type 12, 1, 7
	note D_,1
	rest 1
	note A_,2
	rest 2
	octave 5
	note D_,4
	octave 3
	note A_,2
	rest 2
	octave 4
	note D_,2
; P3-33 -tie
	note D_,2
	octave 3
	note A_,2
	octave 4
	note C_,2
	octave 3
	note B_,2
	note_type 8, 1, 7
	note C_,4
	note C_,4
	note E_,2
	note F#,2
; P3-34
	note_type 12, 1, 7
	note G_,16
; P3-35
	note F_,16
; P3-36
	note G_,8
	note D_,6
	note D_,1
	note E_,1
; P3-37
	note F_,2
	note F_,12
	note E_,1
	note D#,1
; P3-38
	note D_,8
	note G_,8
; P3-39
	note F_,8
	note A_,8
; P3-40
	note G_,8
	note D_,6
	note D_,1
	note E_,1
; P3-41
	note F_,16
; P3-42
	note G_,1
	rest 3
	note G_,1
	rest 5
	note G_,1
	note G_,1
	note G_,1
	rest 3
; P3-43
	note G_,1
	rest 3
	note G_,1
	rest 5
	note G_,1
	note G_,1
	note G_,1
	rest 3
; P3-44
	octave 2
	note G_,1
	rest 3
	note G_,1
	rest 5
	note G_,1
	note G_,1
	note G_,1
	rest 3
; P3-45
	note G_,1
	rest 3
	note G_,1
	rest 3
	note_type 8, 1, 7
	note F_,2
	note F_,2
	note F_,2
	note F_,2
	note F_,2
	note A_,2
; P3-46
	note_type 12, 1, 7
	note G_,1
	rest 15
	sound_ret 
;----------------------------------------
title2_3_Ch4:
;----------------------------------------
	toggle_noise 0
	drum_speed 12
; P4-2
	rest 16
; P4-3
	rest 16
; P4-4
	rest 16
; P4-5
	rest 8
	octave 1
	drum_note 2,1
	rest 1
	drum_note 2,1
	rest 1
	drum_note 2,1
	drum_note 2,1
	drum_note 2,1
	drum_note 2,1
; P4-6
	drum_note 2,1
	rest 1
	stereo_panning TRUE, FALSE
	drum_note 6,1
	rest 1
	stereo_panning TRUE, TRUE
	drum_note 2,1
	rest 1
	stereo_panning TRUE, FALSE
	drum_note 6,1
	rest 1
	stereo_panning FALSE, TRUE
	drum_note 8,1
	stereo_panning TRUE, TRUE
	rest 1
	drum_note 2,1
	drum_note 2,1
	drum_note 2,1
	rest 1
	stereo_panning TRUE, FALSE
	drum_note 6,1
	rest 1
; P4-7
	stereo_panning TRUE, TRUE
	drum_note 2,1
	rest 1
	stereo_panning TRUE, FALSE
	drum_note 6,1
	rest 1
	stereo_panning TRUE, TRUE
	drum_note 2,1
	rest 1
	stereo_panning FALSE, TRUE
	drum_note 8,1
	rest 1
	stereo_panning TRUE, FALSE
	drum_note 6,1
	rest 1
	stereo_panning TRUE, TRUE
	drum_note 2,1
	drum_note 2,1
	drum_note 2,1
	rest 1
	stereo_panning TRUE, FALSE
	drum_note 6,1
	rest 1
; P4-8
	stereo_panning TRUE, TRUE
	drum_note 2,1
	rest 1
	stereo_panning TRUE, FALSE
	drum_note 6,1
	rest 1
	stereo_panning TRUE, TRUE
	drum_note 2,1
	rest 1
	stereo_panning FALSE, TRUE
	drum_note 8,1
	rest 1
	stereo_panning TRUE, FALSE
	drum_note 6,1
	rest 1
	stereo_panning TRUE, TRUE
	drum_note 2,1
	drum_note 2,1
	drum_note 2,1
	rest 1
	stereo_panning TRUE, FALSE
	drum_note 6,1
	rest 1
; P4-9
	stereo_panning TRUE, TRUE
	drum_note 2,1
	rest 1
	stereo_panning TRUE, FALSE
	drum_note 6,1
	rest 1
	stereo_panning TRUE, TRUE
	drum_note 2,1
	rest 1
	stereo_panning TRUE, FALSE
	drum_note 6,1
	rest 1
	stereo_panning TRUE, FALSE
	drum_note 6,1
	rest 1
	stereo_panning TRUE, TRUE
	drum_note 2,1
	drum_note 2,1
	drum_note 2,1
	rest 1
	drum_speed 6
	drum_note 2,1
	drum_note 2,1
	drum_note 2,1
	drum_note 2,1
; P4-10
	drum_note 2,2
	rest 2
	stereo_panning TRUE, FALSE
	drum_note 6,2
	rest 2
	stereo_panning TRUE, TRUE
	drum_note 2,2
	rest 2
	stereo_panning TRUE, FALSE
	drum_note 6,2
	rest 2
	stereo_panning FALSE, TRUE
	drum_note 8,2
	rest 2
	stereo_panning TRUE, TRUE
	drum_note 2,2
	drum_note 2,2
	drum_note 2,2
	rest 2
	stereo_panning TRUE, FALSE
	drum_note 6,2
	rest 2
; P4-11
	stereo_panning TRUE, TRUE
	drum_note 2,2
	rest 2
	stereo_panning TRUE, FALSE
	drum_note 6,2
	rest 2
	stereo_panning TRUE, TRUE
	drum_note 2,2
	rest 2
	stereo_panning FALSE, TRUE
	drum_note 8,2
	rest 2
	stereo_panning TRUE, FALSE
	drum_note 6,2
	rest 2
	stereo_panning TRUE, TRUE
	drum_note 2,2
	drum_note 2,2
	drum_note 2,2
	rest 2
	stereo_panning TRUE, FALSE
	drum_note 6,2
	rest 2
; P4-12
	stereo_panning TRUE, TRUE
	drum_note 2,2
	rest 2
	stereo_panning TRUE, FALSE
	drum_note 6,2
	rest 2
	stereo_panning TRUE, TRUE
	drum_note 2,2
	rest 2
	stereo_panning FALSE, TRUE
	drum_note 8,2
	rest 2
	stereo_panning TRUE, FALSE
	drum_note 6,2
	rest 2
	stereo_panning TRUE, TRUE
	drum_note 2,2
	drum_note 2,2
	drum_note 2,2
	rest 2
	stereo_panning TRUE, FALSE
	drum_note 6,2
	rest 2
; P4-13
	stereo_panning TRUE, TRUE
	drum_note 2,2
	rest 2
	stereo_panning TRUE, FALSE
	drum_note 6,2
	rest 2
	stereo_panning TRUE, TRUE
	drum_note 2,2
	rest 2
	stereo_panning TRUE, FALSE
	drum_note 6,2
	rest 2
	drum_note 6,2
	stereo_panning TRUE, TRUE
	rest 2
	drum_note 2,2
	drum_note 2,2
	drum_note 2,2
	rest 2
	drum_note 2,1
	drum_note 2,1
	drum_note 2,1
	drum_note 2,1
; P4-14
	stereo_panning TRUE, TRUE
	drum_note 2,2
	rest 2
	stereo_panning TRUE, FALSE
	drum_note 6,2
	rest 2
	stereo_panning TRUE, TRUE
	drum_note 2,2
	rest 2
	stereo_panning TRUE, FALSE
	drum_note 6,2
	rest 2
	stereo_panning FALSE, TRUE
	drum_note 8,2
	rest 2
	stereo_panning TRUE, TRUE
	drum_note 2,2
	drum_note 2,2
	drum_note 2,2
	rest 2
	stereo_panning TRUE, FALSE
	drum_note 6,2
	rest 2
; P4-15
	stereo_panning TRUE, TRUE
	drum_note 2,2
	rest 2
	stereo_panning TRUE, FALSE
	drum_note 6,2
	rest 2
	stereo_panning TRUE, TRUE
	drum_note 2,2
	rest 2
	stereo_panning FALSE, TRUE
	drum_note 8,2
	rest 2
	stereo_panning TRUE, FALSE
	drum_note 6,2
	rest 2
	stereo_panning TRUE, TRUE
	drum_note 2,2
	drum_note 2,2
	drum_note 2,2
	rest 2
	drum_note 2,2
	rest 2
; P4-16
	stereo_panning TRUE, TRUE
	drum_note 2,2
	rest 2
	stereo_panning TRUE, FALSE
	drum_note 6,2
	rest 2
	stereo_panning TRUE, TRUE
	drum_note 2,2
	rest 2
	stereo_panning FALSE, TRUE
	drum_note 8,2
	rest 2
	stereo_panning TRUE, FALSE
	drum_note 6,2
	rest 2
	stereo_panning TRUE, TRUE
	drum_note 2,2
	drum_note 2,2
	drum_note 2,2
	rest 2
	stereo_panning TRUE, FALSE
	drum_note 6,2
	rest 2
; P4-17
	stereo_panning TRUE, TRUE
	drum_note 2,2
	rest 2
	stereo_panning TRUE, FALSE
	drum_note 6,2
	rest 2
	stereo_panning TRUE, TRUE
	drum_note 2,2
	rest 2
	stereo_panning TRUE, FALSE
	drum_note 6,2
	rest 2
	drum_note 6,2
	rest 2
	stereo_panning TRUE, TRUE
	drum_note 2,2
	drum_note 2,2
	drum_note 2,2
	rest 2
	drum_note 2,2
	drum_note 2,2
; P4-18
	stereo_panning TRUE, TRUE
	drum_note 2,2
	rest 2
	stereo_panning TRUE, FALSE
	drum_note 6,2
	rest 2
	stereo_panning TRUE, TRUE
	drum_note 2,2
	rest 2
	stereo_panning TRUE, FALSE
	drum_note 6,2
	rest 2
	stereo_panning FALSE, TRUE
	drum_note 8,2
	rest 2
	stereo_panning TRUE, TRUE
	drum_note 2,2
	drum_note 2,2
	drum_note 2,2
	rest 2
	stereo_panning TRUE, FALSE
	drum_note 6,2
	rest 2
; P4-19
	stereo_panning TRUE, TRUE
	drum_note 2,2
	rest 2
	stereo_panning TRUE, FALSE
	drum_note 6,2
	rest 2
	stereo_panning TRUE, TRUE
	drum_note 2,2
	rest 2
	stereo_panning FALSE, TRUE
	drum_note 8,2
	rest 2
	stereo_panning TRUE, FALSE
	drum_note 6,2
	rest 2
	stereo_panning TRUE, TRUE
	drum_note 2,2
	drum_note 2,2
	drum_note 2,2
	rest 2
	stereo_panning TRUE, FALSE
	drum_note 6,2
	rest 2
; P4-20
	stereo_panning TRUE, TRUE
	drum_note 2,2
	rest 2
	stereo_panning TRUE, FALSE
	drum_note 6,2
	rest 2
	stereo_panning TRUE, TRUE
	drum_note 2,2
	rest 2
	stereo_panning FALSE, TRUE
	drum_note 8,2
	rest 2
	stereo_panning TRUE, FALSE
	drum_note 6,2
	rest 2
	stereo_panning TRUE, TRUE
	drum_note 2,2
	drum_note 2,2
	drum_note 2,2
	rest 2
	stereo_panning TRUE, FALSE
	drum_note 6,2
	rest 2
; P4-21
	stereo_panning TRUE, TRUE
	drum_note 2,2
	rest 2
	stereo_panning TRUE, FALSE
	drum_note 6,2
	rest 2
	stereo_panning TRUE, TRUE
	drum_note 2,2
	rest 2
	stereo_panning TRUE, FALSE
	drum_note 6,2
	rest 2
	drum_note 6,2
	rest 2
	stereo_panning TRUE, TRUE
	drum_note 2,2
	drum_note 2,2
	drum_note 2,2
	rest 2
	drum_note 2,1
	drum_note 2,1
	drum_note 2,1
	drum_note 2,1
; P4-22
	stereo_panning TRUE, TRUE
	drum_note 2,2
	rest 2
	stereo_panning TRUE, FALSE
	drum_note 6,2
	rest 2
	stereo_panning TRUE, TRUE
	drum_note 2,2
	rest 2
	stereo_panning TRUE, FALSE
	drum_note 6,2
	rest 2
	stereo_panning FALSE, TRUE
	drum_note 8,2
	rest 2
	stereo_panning TRUE, TRUE
	drum_note 2,2
	drum_note 2,2
	drum_note 2,2
	rest 2
	stereo_panning TRUE, FALSE
	drum_note 6,2
	rest 2
; P4-23
	stereo_panning TRUE, TRUE
	drum_note 2,2
	rest 2
	stereo_panning TRUE, FALSE
	drum_note 6,2
	rest 2
	stereo_panning TRUE, TRUE
	drum_note 2,2
	rest 2
	stereo_panning FALSE, TRUE
	drum_note 8,2
	rest 2
	stereo_panning TRUE, FALSE
	drum_note 6,2
	rest 2
	stereo_panning TRUE, TRUE
	drum_note 2,2
	drum_note 2,2
	drum_note 2,2
	rest 2
	stereo_panning TRUE, FALSE
	drum_note 6,2
	rest 2
; P4-24
	stereo_panning TRUE, TRUE
	drum_note 2,2
	rest 2
	stereo_panning TRUE, FALSE
	drum_note 6,2
	rest 2
	stereo_panning TRUE, TRUE
	drum_note 2,2
	rest 2
	stereo_panning FALSE, TRUE
	drum_note 8,2
	rest 2
	stereo_panning TRUE, FALSE
	drum_note 6,2
	rest 2
	stereo_panning TRUE, TRUE
	drum_note 2,2
	drum_note 2,2
	drum_note 2,2
	rest 2
	drum_note 2,2
	drum_note 2,2
; P4-25
	stereo_panning TRUE, TRUE
	drum_note 2,2
	rest 2
	stereo_panning TRUE, FALSE
	drum_note 6,2
	rest 2
	stereo_panning TRUE, TRUE
	drum_note 2,2
	rest 2
	stereo_panning TRUE, FALSE
	drum_note 6,2
	rest 2
	drum_note 6,2
	rest 2
	stereo_panning TRUE, TRUE
	drum_note 2,2
	drum_note 2,2
	drum_note 2,2
	rest 2
	drum_note 2,1
	drum_note 2,1
	drum_note 2,1
	drum_note 2,1
; P4-26
	stereo_panning TRUE, TRUE
	drum_note 2,2
	rest 2
	stereo_panning TRUE, FALSE
	drum_note 6,2
	rest 2
	stereo_panning TRUE, TRUE
	drum_note 2,2
	rest 2
	stereo_panning TRUE, FALSE
	drum_note 6,2
	rest 2
	stereo_panning FALSE, TRUE
	drum_note 8,2
	rest 2
	stereo_panning TRUE, TRUE
	drum_note 2,2
	drum_note 2,2
	drum_note 2,2
	rest 2
	stereo_panning TRUE, FALSE
	drum_note 6,2
	rest 2
; P4-27
	stereo_panning TRUE, TRUE
	drum_note 2,2
	rest 2
	stereo_panning TRUE, FALSE
	drum_note 6,2
	rest 2
	stereo_panning TRUE, TRUE
	drum_note 2,2
	rest 2
	stereo_panning FALSE, TRUE
	drum_note 8,2
	rest 2
	stereo_panning TRUE, FALSE
	drum_note 6,2
	rest 2
	stereo_panning TRUE, TRUE
	drum_note 2,2
	drum_note 2,2
	drum_note 2,2
	rest 2
	stereo_panning TRUE, FALSE
	drum_note 6,2
	rest 2
; P4-28
	stereo_panning TRUE, TRUE
	drum_note 2,2
	rest 2
	stereo_panning TRUE, FALSE
	drum_note 6,2
	rest 2
	stereo_panning TRUE, TRUE
	drum_note 2,2
	rest 2
	stereo_panning FALSE, TRUE
	drum_note 8,2
	rest 2
	stereo_panning TRUE, FALSE
	drum_note 6,2
	rest 2
	stereo_panning TRUE, TRUE
	drum_note 2,2
	drum_note 2,2
	drum_note 2,2
	rest 2
	stereo_panning TRUE, FALSE
	drum_note 6,2
	rest 2
; P4-29
	stereo_panning TRUE, TRUE
	drum_note 2,2
	rest 2
	stereo_panning TRUE, FALSE
	drum_note 6,2
	rest 2
	stereo_panning TRUE, TRUE
	drum_note 2,2
	rest 2
	drum_note 2,2
	rest 2
	stereo_panning TRUE, FALSE
	drum_note 6,2
	rest 2
	stereo_panning TRUE, TRUE
	drum_note 2,2
	drum_note 2,2
	drum_note 2,2
	drum_note 2,2
	drum_note 2,2
	drum_note 2,2
; P4-30
	drum_note 2,2
	rest 2
	drum_note 2,2
	drum_note 2,2
	drum_note 2,2
	rest 2
	drum_note 2,2
	drum_note 2,2
	drum_note 2,2
	rest 2
	drum_note 2,2
	drum_note 2,2
	drum_note 2,2
	rest 2
	drum_note 2,2
	drum_note 2,2
; P4-31
	drum_note 2,2
	rest 2
	drum_note 2,2
	drum_note 2,2
	drum_note 2,2
	rest 2
	drum_note 2,2
	drum_note 2,2
	drum_speed 8
	drum_note 2,2
	rest 2
	drum_note 2,2
	rest 2
	drum_note 2,1
	drum_note 2,1
	drum_note 2,1
	drum_note 2,1
; P4-32
	drum_speed 12
	drum_note 2,1
	rest 1
	drum_note 2,1
	drum_note 2,1
	drum_note 2,1
	rest 1
	drum_note 2,1
	drum_note 2,1
	drum_note 2,1
	rest 1
	drum_note 2,1
	drum_note 2,1
	drum_note 2,1
	rest 1
	drum_note 2,1
	drum_note 2,1
; P4-33
	drum_note 2,1
	rest 1
	drum_note 2,1
	drum_note 2,1
	drum_note 2,1
	rest 1
	drum_note 2,1
	drum_note 2,1
	drum_speed 8
	drum_note 2,2
	rest 2
	drum_note 2,2
	rest 2
	drum_note 2,1
	drum_note 2,1
	drum_note 2,1
	drum_note 2,1
; P4-34
	drum_note 5,12
	drum_speed 12
	rest 8
; P4-35
	rest 16
; P4-36
	rest 16
; P4-37
	rest 16
; P4-38
	rest 16
; P4-39
	rest 16
; P4-40
	rest 16
; P4-41
	rest 12
	drum_speed 6
	drum_note 2,1
	drum_note 2,1
	drum_note 2,1
	drum_note 2,1
	drum_note 2,1
	drum_note 2,1
	drum_note 2,1
	drum_note 2,1
; P4-42
	drum_note 2,2
	rest 6
	drum_note 2,2
	rest 10
	drum_note 2,2
	drum_note 2,2
	drum_note 2,2
	rest 6
; P4-43
	drum_note 2,2
	rest 6
	drum_note 2,2
	rest 10
	drum_note 2,2
	drum_note 2,2
	drum_note 2,2
	rest 6
; P4-44
	drum_note 2,2
	rest 6
	drum_note 2,2
	rest 10
	drum_note 2,2
	drum_note 2,2
	drum_note 2,2
	rest 6
; P4-45
	drum_note 2,2
	rest 6
	drum_note 2,2
	rest 6
	drum_speed 8
	drum_note 2,2
	drum_note 2,2
	drum_note 2,2
	drum_speed 6
	drum_note 2,1
	drum_note 2,1
	drum_note 2,1
	drum_note 2,1
	drum_note 2,1
	drum_note 2,1
	drum_note 2,1
	drum_note 2,1
; P4-46
	drum_note 2,8
	drum_speed 12
	rest 12
	sound_ret 


